Coordinates
version=1
nRows=10
nColumns=22
inDegrees=yes

Units are S.I. units (second, meters, Newtons, ...)
If the header above contains a line with 'inDegrees', this indicates whether rotational values are in degrees (yes) or radians (no).

endheader
time	pelvis_tilt	pelvis_list	pelvis_rotation	pelvis_tx	pelvis_ty	pelvis_tz	hip_flexion_r	hip_adduction_r	hip_rotation_r	knee_angle_r	ankle_angle_r	subtalar_angle_r	hip_flexion_l	hip_adduction_l	hip_rotation_l	knee_angle_l	ankle_angle_l	subtalar_angle_l	lumbar_extension	lumbar_bending	lumbar_rotation
      3.19000000	      0.50777366	      3.18646925	    -42.08297072	      0.33726736	      0.89671739	     -0.42440372	      8.16536599	      7.98462893	     36.41157133	     -5.96115195	     -4.78346258	     -3.58055377	     35.22837898	    -27.47735959	     13.75016756	    -42.71019478	      9.05866475	      6.96532750	     -5.75936597	      8.82247030	     -9.24369977
      3.20000000	      0.82473512	      3.38911429	    -44.48350893	      0.34121798	      0.89849294	     -0.42113072	      7.52474665	      7.72067463	     37.17519917	     -5.72106488	     -4.92529342	     -3.22478135	     35.26072956	    -27.77764360	     15.14271347	    -42.60842664	      9.39117010	      6.30558270	     -5.97856515	      8.53046842	     -8.97081379
      3.21000000	      1.15952743	      3.65635662	    -47.07848429	      0.34462270	      0.90031181	     -0.41784703	      7.01245399	      7.45937330	     37.77211493	     -5.59252062	     -5.13083957	     -2.94556714	     35.16504891	    -28.06011954	     16.21443726	    -42.80428223	      9.69467957	      5.99089037	     -6.15559822	      8.14450836	     -8.49732678
      3.22000000	      1.60366732	      3.97785254	    -49.83825798	      0.34752189	      0.90230600	     -0.41467398	      6.55224998	      7.12501406	     38.12781521	     -5.54535642	     -5.29776703	     -2.55106312	     34.85343286	    -28.23523853	     16.92079168	    -43.25545296	      9.99967124	      5.84848887	     -6.35664183	      7.61038281	     -7.90206928
      3.23000000	      2.05546396	      4.37341464	    -52.79101406	      0.34978545	      0.90428121	     -0.41161688	      6.28160064	      6.83208269	     38.19955908	     -5.65013518	     -5.49974666	     -2.19185392	     34.42826925	    -28.39333225	     17.25049454	    -43.90242419	     10.21398834	      6.05140341	     -6.47735169	      6.99169265	     -7.09757379
      3.24000000	      2.54204716	      4.84273716	    -55.90979621	      0.35150423	      0.90621984	     -0.40874439	      6.18814523	      6.56543931	     37.88353057	     -5.90369827	     -5.69764527	     -1.85042141	     33.88784957	    -28.50107045	     17.20547485	    -44.70831338	     10.36770491	      6.53025675	     -6.51779903	      6.28181283	     -6.12080422
      3.25000000	      3.06145580	      5.37836596	    -59.16748371	      0.35274192	      0.90806204	     -0.40611403	      6.28144552	      6.34125073	     37.12546459	     -6.31170529	     -5.87220433	     -1.50244599	     33.24937439	    -28.54362349	     16.85787001	    -45.62178639	     10.46431428	      7.22908715	     -6.46305878	      5.50044903	     -4.97528491
      3.26000000	      3.60919422	      5.97961638	    -62.54477011	      0.35360471	      0.90972820	     -0.40377348	      6.56921005	      6.16304303	     35.86858422	     -6.86100421	     -5.99360654	     -1.19096045	     32.55882824	    -28.52437091	     16.21883364	    -46.62288503	     10.51920682	      8.01421794	     -6.29513057	      4.67722550	     -3.69854331
      3.27000000	      4.20775429	      6.65865492	    -66.01991921	      0.35418045	      0.91114399	     -0.40177203	      7.04922477	      5.99279614	     34.14555476	     -7.51176411	     -6.05393560	     -0.96691962	     31.84038395	    -28.40100892	     15.35651300	    -47.67770614	     10.58305407	      8.74283523	     -5.99900661	      3.80115220	     -2.29519758
      3.28000000	      4.84362935	      7.36278052	    -69.56661100	      0.35454022	      0.91228971	     -0.40010685	      7.66759161	      5.85678182	     31.96476962	     -8.22051848	     -6.06418559	     -0.80872674	     31.10307811	    -28.20979795	     14.32567129	    -48.75674911	     10.64446176	      9.43407502	     -5.61012638	      2.92971347	     -0.81134623
